<svg xmlns="http://www.w3.org/2000/svg" xmlns:xlink="http://www.w3.org/1999/xlink" contentStyleType="text/css" data-diagram-type="DESCRIPTION" height="325px" preserveAspectRatio="none" style="width:774px;height:325px;background:#FFFFFF;" version="1.1" viewBox="0 0 774 325" width="774px" zoomAndPan="magnify"><defs/><g><!--entity User--><g class="entity" data-entity="User" data-source-line="7" data-uid="ent0002" id="entity_User"><ellipse cx="85.4884" cy="14" fill="#F1F1F1" rx="8" ry="8" style="stroke:#181818;stroke-width:0.5;"/><path d="M85.4884,22 L85.4884,49 M72.4884,30 L98.4884,30 M85.4884,49 L72.4884,64 M85.4884,49 L98.4884,64" fill="none" style="stroke:#181818;stroke-width:0.5;"/><text fill="#000000" font-family="sans-serif" font-size="14" lengthAdjust="spacing" textLength="100.2969" x="35.34" y="78.4951">Standard User</text></g><!--entity Admin--><g class="entity" data-entity="Admin" data-source-line="8" data-uid="ent0003" id="entity_Admin"><ellipse cx="562.4813" cy="14" fill="#F1F1F1" rx="8" ry="8" style="stroke:#181818;stroke-width:0.5;"/><path d="M562.4813,22 L562.4813,49 M549.4813,30 L575.4813,30 M562.4813,49 L549.4813,64 M562.4813,49 L575.4813,64" fill="none" style="stroke:#181818;stroke-width:0.5;"/><text fill="#000000" font-family="sans-serif" font-size="14" lengthAdjust="spacing" textLength="95.6826" x="514.64" y="78.4951">Administrator</text></g><!--entity UC1--><g class="entity" data-entity="UC1" data-source-line="10" data-uid="ent0004" id="entity_UC1"><ellipse cx="186.4797" cy="167.2564" fill="#E3F2FD" rx="82.1497" ry="24.3164" style="stroke:#1E88E5;stroke-width:0.5;"/><text fill="#000000" font-family="sans-serif" font-size="14" lengthAdjust="spacing" textLength="121.0234" x="125.968" y="166.3128">Select categories</text><text fill="#000000" font-family="sans-serif" font-size="14" lengthAdjust="spacing" textLength="73.8691" x="149.5452" y="182.6097">&#171;optional&#187;</text></g><!--entity UC2--><g class="entity" data-entity="UC2" data-source-line="11" data-uid="ent0005" id="entity_UC2"><ellipse cx="259.4807" cy="294.2296" fill="#E3F2FD" rx="78.6507" ry="24.1296" style="stroke:#1E88E5;stroke-width:0.5;"/><text fill="#000000" font-family="sans-serif" font-size="14" lengthAdjust="spacing" textLength="116.6963" x="201.1326" y="293.5776">Confirm deletion</text><text fill="#000000" font-family="sans-serif" font-size="14" lengthAdjust="spacing" textLength="64.0186" x="227.4715" y="309.8745">&#171;critical&#187;</text></g><!--entity UC3--><g class="entity" data-entity="UC3" data-source-line="12" data-uid="ent0006" id="entity_UC3"><ellipse cx="441.484" cy="167.2605" fill="#E3F2FD" rx="67.494" ry="24.4605" style="stroke:#1E88E5;stroke-width:0.5;"/><text fill="#000000" font-family="sans-serif" font-size="14" lengthAdjust="spacing" textLength="97.9521" x="392.5079" y="166.0944">Start cleaning</text><text fill="#000000" font-family="sans-serif" font-size="14" lengthAdjust="spacing" textLength="64.0186" x="409.4747" y="182.3913">&#171;critical&#187;</text></g><!--entity UC4--><g class="entity" data-entity="UC4" data-source-line="13" data-uid="ent0007" id="entity_UC4"><ellipse cx="463.4842" cy="294.232" fill="#E3F2FD" rx="84.2442" ry="24.262" style="stroke:#1E88E5;stroke-width:0.5;"/><text fill="#000000" font-family="sans-serif" font-size="14" lengthAdjust="spacing" textLength="124.5439" x="401.2122" y="293.3729">Show freed space</text><text fill="#000000" font-family="sans-serif" font-size="14" lengthAdjust="spacing" textLength="73.8691" x="426.5496" y="309.6698">&#171;optional&#187;</text></g><!--entity UC5--><g class="entity" data-entity="UC5" data-source-line="14" data-uid="ent0008" id="entity_UC5"><ellipse cx="679.4787" cy="294.2257" fill="#E3F2FD" rx="54.0287" ry="25.5157" style="stroke:#1E88E5;stroke-width:0.5;"/><text fill="#000000" font-family="sans-serif" font-size="14" lengthAdjust="spacing" textLength="66.6162" x="646.1706" y="289.9649">View logs</text><text fill="#000000" font-family="sans-serif" font-size="14" lengthAdjust="spacing" textLength="73.8691" x="642.5442" y="306.2618">&#171;optional&#187;</text></g><!--entity UC6--><g class="entity" data-entity="UC6" data-source-line="15" data-uid="ent0009" id="entity_UC6"><ellipse cx="623.4782" cy="167.2553" fill="#E3F2FD" rx="79.1082" ry="24.4053" style="stroke:#1E88E5;stroke-width:0.5;"/><text fill="#000000" font-family="sans-serif" font-size="14" lengthAdjust="spacing" textLength="115.8896" x="565.5334" y="166.1742">Manage settings</text><text fill="#000000" font-family="sans-serif" font-size="14" lengthAdjust="spacing" textLength="73.8691" x="586.5436" y="182.4711">&#171;optional&#187;</text></g><!--link User to UC1--><g class="link" data-entity-1="User" data-entity-2="UC1" data-source-line="17" data-uid="lnk10" id="link_User_UC1"><path d="M116.61,82.13 C133.19,102.09 149.2168,121.3841 163.5168,138.6041" fill="none" id="User-to-UC1" style="stroke:#0D47A1;stroke-width:1;"/><polygon fill="#0D47A1" points="167.35,143.22,164.6775,133.7407,164.1557,139.3734,158.5229,138.8516,167.35,143.22" style="stroke:#0D47A1;stroke-width:1;"/></g><!--link User to UC2--><g class="link" data-entity-1="User" data-entity-2="UC2" data-source-line="18" data-uid="lnk11" id="link_User_UC2"><path d="M43.58,82.19 C36.18,91.09 29.55,101.14 25.48,111.8 C12.82,144.98 6,162.02 25.48,191.72 C61.38,246.42 127.9215,270.5505 182.7315,282.2205" fill="none" id="User-to-UC2" style="stroke:#0D47A1;stroke-width:1;"/><polygon fill="#0D47A1" points="188.6,283.47,180.6303,277.6835,183.7096,282.4288,178.9643,285.5081,188.6,283.47" style="stroke:#0D47A1;stroke-width:1;"/></g><!--link User to UC3--><g class="link" data-entity-1="User" data-entity-2="UC3" data-source-line="19" data-uid="lnk12" id="link_User_UC3"><path d="M136.11,61.94 C204.64,85.35 320.3922,124.8904 387.6322,147.8604" fill="none" id="User-to-UC3" style="stroke:#0D47A1;stroke-width:1;"/><polygon fill="#0D47A1" points="393.31,149.8,386.0863,143.1053,388.5785,148.1837,383.5002,150.6758,393.31,149.8" style="stroke:#0D47A1;stroke-width:1;"/></g><!--link User to UC4--><g class="link" data-entity-1="User" data-entity-2="UC4" data-source-line="20" data-uid="lnk13" id="link_User_UC4"><path d="M73.23,82.24 C65.03,115.33 60.01,162.64 86.48,191.72 C131.14,240.77 322.78,194.97 383.48,221.72 C408.03,232.54 426.2864,249.3321 441.0464,265.8821" fill="none" id="User-to-UC4" style="stroke:#0D47A1;stroke-width:1;"/><polygon fill="#0D47A1" points="445.04,270.36,442.0349,260.9808,441.712,266.6284,436.0644,266.3056,445.04,270.36" style="stroke:#0D47A1;stroke-width:1;"/></g><!--link Admin to UC1--><g class="link" data-entity-1="Admin" data-entity-2="UC1" data-source-line="22" data-uid="lnk14" id="link_Admin_UC1"><path d="M514.27,53.49 C460.06,64.18 369.88,84.23 295.48,111.8 C270.69,120.99 249.4077,131.3545 228.7077,142.4545" fill="none" id="Admin-to-UC1" style="stroke:#0D47A1;stroke-width:1;"/><polygon fill="#0D47A1" points="223.42,145.29,233.2419,144.562,227.8265,142.9271,229.4613,137.5117,223.42,145.29" style="stroke:#0D47A1;stroke-width:1;"/></g><!--link Admin to UC2--><g class="link" data-entity-1="Admin" data-entity-2="UC2" data-source-line="23" data-uid="lnk15" id="link_Admin_UC2"><path d="M514.41,59.05 C469.66,74.29 403.04,101.85 356.48,142.8 C314.95,179.33 286.7894,232.34 271.9494,264.57" fill="none" id="Admin-to-UC2" style="stroke:#0D47A1;stroke-width:1;"/><polygon fill="#0D47A1" points="269.44,270.02,276.8375,263.5179,271.5312,265.4783,269.5708,260.172,269.44,270.02" style="stroke:#0D47A1;stroke-width:1;"/></g><!--link Admin to UC3--><g class="link" data-entity-1="Admin" data-entity-2="UC3" data-source-line="24" data-uid="lnk16" id="link_Admin_UC3"><path d="M525.19,82.13 C505.06,102.37 485.1128,122.4175 467.9228,139.6875" fill="none" id="Admin-to-UC3" style="stroke:#0D47A1;stroke-width:1;"/><polygon fill="#0D47A1" points="463.69,143.94,472.8742,140.3831,467.2173,140.3963,467.2042,134.7394,463.69,143.94" style="stroke:#0D47A1;stroke-width:1;"/></g><!--link Admin to UC4--><g class="link" data-entity-1="Admin" data-entity-2="UC4" data-source-line="25" data-uid="lnk17" id="link_Admin_UC4"><path d="M610.78,62.81 C667.86,87.31 751.44,134.54 720.48,191.72 C701.33,227.1 602.7237,258.1779 533.0237,276.4579" fill="none" id="Admin-to-UC4" style="stroke:#0D47A1;stroke-width:1;"/><polygon fill="#0D47A1" points="527.22,277.98,536.9403,279.566,532.0564,276.7116,534.9108,271.8277,527.22,277.98" style="stroke:#0D47A1;stroke-width:1;"/></g><!--link Admin to UC5--><g class="link" data-entity-1="Admin" data-entity-2="UC5" data-source-line="26" data-uid="lnk18" id="link_Admin_UC5"><path d="M610.54,52.11 C658.51,62.63 728.09,87.19 749.48,142.8 C767.38,189.31 733.1786,237.241 706.4886,266.301" fill="none" id="Admin-to-UC5" style="stroke:#0D47A1;stroke-width:1;"/><polygon fill="#0D47A1" points="702.43,270.72,711.4639,266.7972,705.8122,267.0375,705.5719,261.3857,702.43,270.72" style="stroke:#0D47A1;stroke-width:1;"/></g><!--link Admin to UC6--><g class="link" data-entity-1="Admin" data-entity-2="UC6" data-source-line="27" data-uid="lnk19" id="link_Admin_UC6"><path d="M581.28,82.13 C591.23,101.95 600.428,120.3078 609.058,137.4978" fill="none" id="Admin-to-UC6" style="stroke:#0D47A1;stroke-width:1;"/><polygon fill="#0D47A1" points="611.75,142.86,611.2868,133.022,609.5067,138.3915,604.1372,136.6114,611.75,142.86" style="stroke:#0D47A1;stroke-width:1;"/></g><!--link UC3 to UC2--><g class="link" data-entity-1="UC3" data-entity-2="UC2" data-source-line="29" data-uid="lnk20" id="link_UC3_UC2"><path d="M410.61,189.46 C377.24,212.37 329.3067,245.2944 295.7567,268.3244" fill="none" id="UC3-to-UC2" style="stroke:#0D47A1;stroke-width:1;"/><polygon fill="#0D47A1" points="290.81,271.72,300.4938,269.9244,294.9323,268.8903,295.9663,263.3288,290.81,271.72" style="stroke:#0D47A1;stroke-width:1;"/><text fill="#000000" font-family="sans-serif" font-size="13" lengthAdjust="spacing" textLength="63.0068" x="362.48" y="234.7869">&#171;include&#187;</text></g><!--link UC3 to UC4--><g class="link" data-entity-1="UC3" data-entity-2="UC4" data-source-line="30" data-uid="lnk21" id="link_UC3_UC4"><path d="M445.67,192.06 C449.59,214.3 454.3597,241.4009 458.2697,263.6109" fill="none" id="UC3-to-UC4" style="stroke:#0D47A1;stroke-width:1;"/><polygon fill="#0D47A1" points="459.31,269.52,461.689,259.9628,458.4431,264.5957,453.8102,261.3498,459.31,269.52" style="stroke:#0D47A1;stroke-width:1;"/><text fill="#000000" font-family="sans-serif" font-size="13" lengthAdjust="spacing" textLength="63.0068" x="455.48" y="234.7869">&#171;include&#187;</text></g><!--link UC3 to UC5--><g class="link" data-entity-1="UC3" data-entity-2="UC5" data-source-line="31" data-uid="lnk22" id="link_UC3_UC5"><path d="M478.93,187.92 C524.23,211.71 594.5777,248.6508 638.8777,271.9108" fill="none" id="UC3-to-UC5" style="stroke:#0D47A1;stroke-width:1;"/><polygon fill="#0D47A1" points="644.19,274.7,638.0811,266.9746,639.7631,272.3756,634.3621,274.0577,644.19,274.7" style="stroke:#0D47A1;stroke-width:1;"/><text fill="#000000" font-family="sans-serif" font-size="13" lengthAdjust="spacing" textLength="63.0068" x="576.48" y="234.7869">&#171;include&#187;</text></g><!--SRC=[TP3DQiCm48JlUeebFGVglpOKOt2TvDPJQ4-zBDB64R4birB8eVJTQxj9BODxqpSpknh9dRNfaB65YoE9Zk1B0BoYFDTiBqPLjh4C3xja7- -tWsDP4T_KQBVPxB9UBPdjzIO-RjFdCXBVGg3qlR0wU3GAMS6x8ru1kl5mTqlLQgETP-nnT4T5Y7kVrO4QaXuaUgejQtAV9izjvxKrs1J5xyOgcWOgQuwQMr3zu90QyfArrpB8ny457hdVtn0QRUh5T1AaJ_OAHoPIu3gKjDWcdV8VcgxGs7gvTZO5tz1WJU38-xx6Sln9YE7pOBqknZS748UGX90ACVxftrH8yOoI6QKpocOqDAcI-n9uWJpNHZONHKKHEEc_JZPtVW00]--></g></svg>